<svg width="60" height="60" viewBox="0 0 60 60" fill="none" xmlns="http://www.w3.org/2000/svg">
<path d="M51.0321 8.82559C45.4322 3.2123 37.9746 0.125 30.0491 0.125C13.6904 0.125 0.378934 13.4365 0.378934 29.7952C0.378934 35.0209 1.74216 40.1263 4.33496 44.6303L0.125 60L15.8556 55.8702C20.1858 58.2358 25.064 59.4788 30.0358 59.4788H30.0491C46.3945 59.4788 60 46.1673 60 29.8086C60 21.8831 56.632 14.4389 51.0321 8.82559ZM30.0491 54.4803C25.612 54.4803 21.2684 53.2908 17.4861 51.0455L16.5906 50.5109L7.26189 52.9567L9.74777 43.8551L9.15971 42.9196C6.68719 38.9903 5.39079 34.4596 5.39079 29.7952C5.39079 16.203 16.457 5.13686 30.0625 5.13686C36.6514 5.13686 42.8394 7.70293 47.4904 12.3673C52.1414 17.0317 55.0015 23.2196 54.9881 29.8086C54.9881 43.4141 43.6413 54.4803 30.0491 54.4803ZM43.5745 36.0099C42.8394 35.6357 39.1908 33.8448 38.5092 33.6042C37.8275 33.3503 37.333 33.23 36.8385 33.9784C36.344 34.7269 34.9273 36.3841 34.4863 36.892C34.0586 37.3865 33.6176 37.4533 32.8825 37.0791C28.5255 34.9006 25.6654 33.1899 22.792 28.2582C22.0302 26.9485 23.5538 27.042 24.9705 24.2087C25.211 23.7141 25.0907 23.2865 24.9036 22.9123C24.7165 22.538 23.233 18.8894 22.6182 17.4059C22.0168 15.9625 21.402 16.1629 20.9476 16.1362C20.5199 16.1095 20.0254 16.1095 19.5309 16.1095C19.0364 16.1095 18.2345 16.2966 17.5529 17.0317C16.8713 17.7801 14.9601 19.571 14.9601 23.2196C14.9601 26.8683 17.6197 30.3966 17.9806 30.8911C18.3548 31.3856 23.2063 38.87 30.6506 42.091C35.355 44.1224 37.1994 44.2962 39.5516 43.9487C40.9817 43.7348 43.9353 42.1578 44.5501 40.4203C45.1649 38.6829 45.1649 37.1994 44.9778 36.892C44.804 36.5579 44.3095 36.3708 43.5745 36.0099Z" fill="white"/>
</svg>
