<svg width="21" height="17" viewBox="0 0 21 17" fill="none" xmlns="http://www.w3.org/2000/svg">
<path d="M3.97253 3.08619C4.01233 -0.186233 8.50933 -0.0475597 8.39383 3.08619V13.7417" stroke="#9CA3AF" stroke-width="0.905077" stroke-miterlimit="10" stroke-linecap="round" stroke-linejoin="round"/>
<path d="M11.263 3.08619C11.3015 -0.186233 15.7998 -0.0475597 15.6843 3.08619V13.7417" stroke="#9CA3AF" stroke-width="0.905077" stroke-miterlimit="10" stroke-linecap="round" stroke-linejoin="round"/>
<path d="M15.6843 5.19165H8.3938V6.64618H15.6843V5.19165Z" stroke="#9CA3AF" stroke-width="0.905077" stroke-miterlimit="10" stroke-linecap="round" stroke-linejoin="round"/>
<path d="M15.6843 9.56543H8.3938V11.02H15.6843V9.56543Z" stroke="#9CA3AF" stroke-width="0.905077" stroke-miterlimit="10" stroke-linecap="round" stroke-linejoin="round"/>
<path d="M0.832458 13.2192C1.80681 12.526 2.72857 12.1614 3.90062 12.8225C5.10484 13.5979 6.6851 14.34 8.3938 13.7417C10.0909 12.9252 10.8804 12.5876 11.8831 13.3347C12.9627 14.1153 14.2169 14.2796 15.6843 13.7417C17.4122 12.9715 18.8911 12.4721 20.1582 13.7893" stroke="#9CA3AF" stroke-width="0.905077" stroke-miterlimit="10" stroke-linecap="round" stroke-linejoin="round"/>
<path d="M3.34088 15.4376C5.15096 15.7008 6.7929 17.1772 8.5016 15.5904C9.42079 15.073 10.553 15.0255 11.9819 15.6289C13.3491 16.3016 14.5392 16.3979 15.4994 15.7444C16.3493 15.0755 17.5817 15.1127 18.6344 15.6674" stroke="#9CA3AF" stroke-width="0.905077" stroke-miterlimit="10" stroke-linecap="round" stroke-linejoin="round"/>
<path d="M1.75427 14.8591V14.8484" stroke="#9CA3AF" stroke-width="0.905077" stroke-miterlimit="10" stroke-linecap="round" stroke-linejoin="round"/>
</svg>
