<svg width="1122" height="964" viewBox="0 0 1122 964" fill="none" xmlns="http://www.w3.org/2000/svg">
<path opacity="0.5" d="M1120.61 27.5076V943.619C1120.61 954.594 1111.72 963.49 1100.74 963.49H20.5668C9.59222 963.49 0.695552 954.594 0.695552 943.619V27.5076C0.695552 16.5331 9.59218 7.63647 20.5667 7.63647H504.318C509.588 7.63647 514.643 9.73003 518.369 13.4566L548.719 43.8065C556.965 52.0526 570.366 51.9506 578.486 43.5799L607.496 13.6722C611.238 9.81399 616.384 7.63647 621.759 7.63647H1100.74C1111.72 7.63647 1120.61 16.5331 1120.61 27.5076Z" fill="url(#paint0_linear_3_244)" stroke="#E5E7EB" stroke-width="1.01903"/>
<path opacity="0.8" d="M560.167 34.3377C561.377 36.0523 563.912 36.0768 565.155 34.386L575.192 20.7373C576.685 18.7071 575.236 15.8415 572.715 15.8415L562.628 15.8415L553.043 15.8415C550.55 15.8415 549.094 18.6525 550.532 20.689L560.167 34.3377Z" fill="#008FEF"/>
<defs>
<linearGradient id="paint0_linear_3_244" x1="560.655" y1="7.12695" x2="560.655" y2="964" gradientUnits="userSpaceOnUse">
<stop offset="0.0874211" stop-color="#997B8D" stop-opacity="0.04"/>
<stop offset="1" stop-color="#FF007A" stop-opacity="0"/>
</linearGradient>
</defs>
</svg>
